<?xml version="1.0" encoding="utf-8" ?>
<svg baseProfile="tiny" height="100%" version="1.2" width="100%" xmlns="http://www.w3.org/2000/svg" xmlns:ev="http://www.w3.org/2001/xml-events" xmlns:xlink="http://www.w3.org/1999/xlink"><defs /><rect fill="black" height="10" width="10" x="40" y="40" /><rect fill="black" height="10" width="10" x="50" y="40" /><rect fill="black" height="10" width="10" x="60" y="40" /><rect fill="black" height="10" width="10" x="70" y="40" /><rect fill="black" height="10" width="10" x="80" y="40" /><rect fill="black" height="10" width="10" x="90" y="40" /><rect fill="black" height="10" width="10" x="100" y="40" /><rect fill="black" height="10" width="10" x="120" y="40" /><rect fill="black" height="10" width="10" x="130" y="40" /><rect fill="black" height="10" width="10" x="140" y="40" /><rect fill="black" height="10" width="10" x="150" y="40" /><rect fill="black" height="10" width="10" x="160" y="40" /><rect fill="black" height="10" width="10" x="180" y="40" /><rect fill="black" height="10" width="10" x="190" y="40" /><rect fill="black" height="10" width="10" x="200" y="40" /><rect fill="black" height="10" width="10" x="210" y="40" /><rect fill="black" height="10" width="10" x="220" y="40" /><rect fill="black" height="10" width="10" x="230" y="40" /><rect fill="black" height="10" width="10" x="240" y="40" /><rect fill="black" height="10" width="10" x="40" y="50" /><rect fill="black" height="10" width="10" x="100" y="50" /><rect fill="black" height="10" width="10" x="130" y="50" /><rect fill="black" height="10" width="10" x="150" y="50" /><rect fill="black" height="10" width="10" x="180" y="50" /><rect fill="black" height="10" width="10" x="240" y="50" /><rect fill="black" height="10" width="10" x="40" y="60" /><rect fill="black" height="10" width="10" x="60" y="60" /><rect fill="black" height="10" width="10" x="70" y="60" /><rect fill="black" height="10" width="10" x="80" y="60" /><rect fill="black" height="10" width="10" x="100" y="60" /><rect fill="black" height="10" width="10" x="130" y="60" /><rect fill="black" height="10" width="10" x="140" y="60" /><rect fill="black" height="10" width="10" x="180" y="60" /><rect fill="black" height="10" width="10" x="200" y="60" /><rect fill="black" height="10" width="10" x="210" y="60" /><rect fill="black" height="10" width="10" x="220" y="60" /><rect fill="black" height="10" width="10" x="240" y="60" /><rect fill="black" height="10" width="10" x="40" y="70" /><rect fill="black" height="10" width="10" x="60" y="70" /><rect fill="black" height="10" width="10" x="70" y="70" /><rect fill="black" height="10" width="10" x="80" y="70" /><rect fill="black" height="10" width="10" x="100" y="70" /><rect fill="black" height="10" width="10" x="130" y="70" /><rect fill="black" height="10" width="10" x="140" y="70" /><rect fill="black" height="10" width="10" x="150" y="70" /><rect fill="black" height="10" width="10" x="180" y="70" /><rect fill="black" height="10" width="10" x="200" y="70" /><rect fill="black" height="10" width="10" x="210" y="70" /><rect fill="black" height="10" width="10" x="220" y="70" /><rect fill="black" height="10" width="10" x="240" y="70" /><rect fill="black" height="10" width="10" x="40" y="80" /><rect fill="black" height="10" width="10" x="60" y="80" /><rect fill="black" height="10" width="10" x="70" y="80" /><rect fill="black" height="10" width="10" x="80" y="80" /><rect fill="black" height="10" width="10" x="100" y="80" /><rect fill="black" height="10" width="10" x="140" y="80" /><rect fill="black" height="10" width="10" x="160" y="80" /><rect fill="black" height="10" width="10" x="180" y="80" /><rect fill="black" height="10" width="10" x="200" y="80" /><rect fill="black" height="10" width="10" x="210" y="80" /><rect fill="black" height="10" width="10" x="220" y="80" /><rect fill="black" height="10" width="10" x="240" y="80" /><rect fill="black" height="10" width="10" x="40" y="90" /><rect fill="black" height="10" width="10" x="100" y="90" /><rect fill="black" height="10" width="10" x="150" y="90" /><rect fill="black" height="10" width="10" x="160" y="90" /><rect fill="black" height="10" width="10" x="180" y="90" /><rect fill="black" height="10" width="10" x="240" y="90" /><rect fill="black" height="10" width="10" x="40" y="100" /><rect fill="black" height="10" width="10" x="50" y="100" /><rect fill="black" height="10" width="10" x="60" y="100" /><rect fill="black" height="10" width="10" x="70" y="100" /><rect fill="black" height="10" width="10" x="80" y="100" /><rect fill="black" height="10" width="10" x="90" y="100" /><rect fill="black" height="10" width="10" x="100" y="100" /><rect fill="black" height="10" width="10" x="120" y="100" /><rect fill="black" height="10" width="10" x="140" y="100" /><rect fill="black" height="10" width="10" x="160" y="100" /><rect fill="black" height="10" width="10" x="180" y="100" /><rect fill="black" height="10" width="10" x="190" y="100" /><rect fill="black" height="10" width="10" x="200" y="100" /><rect fill="black" height="10" width="10" x="210" y="100" /><rect fill="black" height="10" width="10" x="220" y="100" /><rect fill="black" height="10" width="10" x="230" y="100" /><rect fill="black" height="10" width="10" x="240" y="100" /><rect fill="black" height="10" width="10" x="120" y="110" /><rect fill="black" height="10" width="10" x="130" y="110" /><rect fill="black" height="10" width="10" x="140" y="110" /><rect fill="black" height="10" width="10" x="150" y="110" /><rect fill="black" height="10" width="10" x="160" y="110" /><rect fill="black" height="10" width="10" x="40" y="120" /><rect fill="black" height="10" width="10" x="50" y="120" /><rect fill="black" height="10" width="10" x="70" y="120" /><rect fill="black" height="10" width="10" x="80" y="120" /><rect fill="black" height="10" width="10" x="100" y="120" /><rect fill="black" height="10" width="10" x="130" y="120" /><rect fill="black" height="10" width="10" x="140" y="120" /><rect fill="black" height="10" width="10" x="160" y="120" /><rect fill="black" height="10" width="10" x="180" y="120" /><rect fill="black" height="10" width="10" x="240" y="120" /><rect fill="black" height="10" width="10" x="80" y="130" /><rect fill="black" height="10" width="10" x="160" y="130" /><rect fill="black" height="10" width="10" x="180" y="130" /><rect fill="black" height="10" width="10" x="200" y="130" /><rect fill="black" height="10" width="10" x="210" y="130" /><rect fill="black" height="10" width="10" x="220" y="130" /><rect fill="black" height="10" width="10" x="40" y="140" /><rect fill="black" height="10" width="10" x="60" y="140" /><rect fill="black" height="10" width="10" x="70" y="140" /><rect fill="black" height="10" width="10" x="90" y="140" /><rect fill="black" height="10" width="10" x="100" y="140" /><rect fill="black" height="10" width="10" x="120" y="140" /><rect fill="black" height="10" width="10" x="140" y="140" /><rect fill="black" height="10" width="10" x="170" y="140" /><rect fill="black" height="10" width="10" x="180" y="140" /><rect fill="black" height="10" width="10" x="200" y="140" /><rect fill="black" height="10" width="10" x="220" y="140" /><rect fill="black" height="10" width="10" x="230" y="140" /><rect fill="black" height="10" width="10" x="240" y="140" /><rect fill="black" height="10" width="10" x="60" y="150" /><rect fill="black" height="10" width="10" x="70" y="150" /><rect fill="black" height="10" width="10" x="80" y="150" /><rect fill="black" height="10" width="10" x="140" y="150" /><rect fill="black" height="10" width="10" x="150" y="150" /><rect fill="black" height="10" width="10" x="220" y="150" /><rect fill="black" height="10" width="10" x="40" y="160" /><rect fill="black" height="10" width="10" x="50" y="160" /><rect fill="black" height="10" width="10" x="60" y="160" /><rect fill="black" height="10" width="10" x="70" y="160" /><rect fill="black" height="10" width="10" x="80" y="160" /><rect fill="black" height="10" width="10" x="100" y="160" /><rect fill="black" height="10" width="10" x="110" y="160" /><rect fill="black" height="10" width="10" x="120" y="160" /><rect fill="black" height="10" width="10" x="140" y="160" /><rect fill="black" height="10" width="10" x="180" y="160" /><rect fill="black" height="10" width="10" x="230" y="160" /><rect fill="black" height="10" width="10" x="120" y="170" /><rect fill="black" height="10" width="10" x="150" y="170" /><rect fill="black" height="10" width="10" x="160" y="170" /><rect fill="black" height="10" width="10" x="190" y="170" /><rect fill="black" height="10" width="10" x="230" y="170" /><rect fill="black" height="10" width="10" x="240" y="170" /><rect fill="black" height="10" width="10" x="40" y="180" /><rect fill="black" height="10" width="10" x="50" y="180" /><rect fill="black" height="10" width="10" x="60" y="180" /><rect fill="black" height="10" width="10" x="70" y="180" /><rect fill="black" height="10" width="10" x="80" y="180" /><rect fill="black" height="10" width="10" x="90" y="180" /><rect fill="black" height="10" width="10" x="100" y="180" /><rect fill="black" height="10" width="10" x="140" y="180" /><rect fill="black" height="10" width="10" x="160" y="180" /><rect fill="black" height="10" width="10" x="170" y="180" /><rect fill="black" height="10" width="10" x="180" y="180" /><rect fill="black" height="10" width="10" x="190" y="180" /><rect fill="black" height="10" width="10" x="200" y="180" /><rect fill="black" height="10" width="10" x="210" y="180" /><rect fill="black" height="10" width="10" x="220" y="180" /><rect fill="black" height="10" width="10" x="40" y="190" /><rect fill="black" height="10" width="10" x="100" y="190" /><rect fill="black" height="10" width="10" x="130" y="190" /><rect fill="black" height="10" width="10" x="140" y="190" /><rect fill="black" height="10" width="10" x="150" y="190" /><rect fill="black" height="10" width="10" x="160" y="190" /><rect fill="black" height="10" width="10" x="170" y="190" /><rect fill="black" height="10" width="10" x="190" y="190" /><rect fill="black" height="10" width="10" x="200" y="190" /><rect fill="black" height="10" width="10" x="210" y="190" /><rect fill="black" height="10" width="10" x="220" y="190" /><rect fill="black" height="10" width="10" x="240" y="190" /><rect fill="black" height="10" width="10" x="40" y="200" /><rect fill="black" height="10" width="10" x="60" y="200" /><rect fill="black" height="10" width="10" x="70" y="200" /><rect fill="black" height="10" width="10" x="80" y="200" /><rect fill="black" height="10" width="10" x="100" y="200" /><rect fill="black" height="10" width="10" x="120" y="200" /><rect fill="black" height="10" width="10" x="140" y="200" /><rect fill="black" height="10" width="10" x="150" y="200" /><rect fill="black" height="10" width="10" x="160" y="200" /><rect fill="black" height="10" width="10" x="180" y="200" /><rect fill="black" height="10" width="10" x="190" y="200" /><rect fill="black" height="10" width="10" x="210" y="200" /><rect fill="black" height="10" width="10" x="230" y="200" /><rect fill="black" height="10" width="10" x="240" y="200" /><rect fill="black" height="10" width="10" x="40" y="210" /><rect fill="black" height="10" width="10" x="60" y="210" /><rect fill="black" height="10" width="10" x="70" y="210" /><rect fill="black" height="10" width="10" x="80" y="210" /><rect fill="black" height="10" width="10" x="100" y="210" /><rect fill="black" height="10" width="10" x="120" y="210" /><rect fill="black" height="10" width="10" x="150" y="210" /><rect fill="black" height="10" width="10" x="160" y="210" /><rect fill="black" height="10" width="10" x="200" y="210" /><rect fill="black" height="10" width="10" x="40" y="220" /><rect fill="black" height="10" width="10" x="60" y="220" /><rect fill="black" height="10" width="10" x="70" y="220" /><rect fill="black" height="10" width="10" x="80" y="220" /><rect fill="black" height="10" width="10" x="100" y="220" /><rect fill="black" height="10" width="10" x="130" y="220" /><rect fill="black" height="10" width="10" x="140" y="220" /><rect fill="black" height="10" width="10" x="180" y="220" /><rect fill="black" height="10" width="10" x="230" y="220" /><rect fill="black" height="10" width="10" x="240" y="220" /><rect fill="black" height="10" width="10" x="40" y="230" /><rect fill="black" height="10" width="10" x="100" y="230" /><rect fill="black" height="10" width="10" x="120" y="230" /><rect fill="black" height="10" width="10" x="130" y="230" /><rect fill="black" height="10" width="10" x="170" y="230" /><rect fill="black" height="10" width="10" x="180" y="230" /><rect fill="black" height="10" width="10" x="200" y="230" /><rect fill="black" height="10" width="10" x="220" y="230" /><rect fill="black" height="10" width="10" x="230" y="230" /><rect fill="black" height="10" width="10" x="240" y="230" /><rect fill="black" height="10" width="10" x="40" y="240" /><rect fill="black" height="10" width="10" x="50" y="240" /><rect fill="black" height="10" width="10" x="60" y="240" /><rect fill="black" height="10" width="10" x="70" y="240" /><rect fill="black" height="10" width="10" x="80" y="240" /><rect fill="black" height="10" width="10" x="90" y="240" /><rect fill="black" height="10" width="10" x="100" y="240" /><rect fill="black" height="10" width="10" x="120" y="240" /><rect fill="black" height="10" width="10" x="130" y="240" /><rect fill="black" height="10" width="10" x="140" y="240" /><rect fill="black" height="10" width="10" x="150" y="240" /><rect fill="black" height="10" width="10" x="220" y="240" /></svg>